<?xml version="1.0" encoding="UTF-8" standalone="no"?>
<!DOCTYPE svg PUBLIC "-//W3C//DTD SVG 1.1//EN"
 "http://www.w3.org/Graphics/SVG/1.1/DTD/svg11.dtd">
<!-- Generated by graphviz version 2.40.1 (20161225.0304)
 -->
<!-- Title: G Pages: 1 -->
<svg width="206pt" height="388pt"
 viewBox="0.00 0.00 206.00 388.00" xmlns="http://www.w3.org/2000/svg" xmlns:xlink="http://www.w3.org/1999/xlink">
<g id="graph0" class="graph" transform="scale(1 1) rotate(0) translate(4 384)">
<title>G</title>
<polygon fill="#ffffff" stroke="transparent" points="-4,4 -4,-384 202,-384 202,4 -4,4"/>
<!-- n0 -->
<g id="node1" class="node">
<title>n0</title>
<ellipse fill="none" stroke="#000000" cx="99" cy="-362" rx="27" ry="18"/>
<text text-anchor="middle" x="99" y="-357.8" font-family="Times,serif" font-size="14.00" fill="#000000"> </text>
</g>
<!-- n1 -->
<g id="node2" class="node">
<title>n1</title>
<ellipse fill="none" stroke="#000000" cx="27" cy="-276" rx="27" ry="18"/>
<text text-anchor="middle" x="27" y="-271.8" font-family="Times,serif" font-size="14.00" fill="#000000"> </text>
</g>
<!-- n0&#45;&gt;n1 -->
<g id="edge1" class="edge">
<title>n0&#45;&gt;n1</title>
<path fill="none" stroke="#000000" d="M85.7941,-346.2263C74.9013,-333.2155 59.2788,-314.5553 46.8753,-299.7399"/>
<polygon fill="#000000" stroke="#000000" points="49.4691,-297.3858 40.366,-291.965 44.1018,-301.8794 49.4691,-297.3858"/>
<text text-anchor="middle" x="72.8569" y="-314.8" font-family="Times,serif" font-size="14.00" fill="#000000"> a</text>
</g>
<!-- n5 -->
<g id="node5" class="node">
<title>n5</title>
<ellipse fill="none" stroke="#000000" cx="99" cy="-276" rx="27" ry="18"/>
<text text-anchor="middle" x="99" y="-271.8" font-family="Times,serif" font-size="14.00" fill="#000000"> </text>
</g>
<!-- n0&#45;&gt;n5 -->
<g id="edge4" class="edge">
<title>n0&#45;&gt;n5</title>
<path fill="none" stroke="#000000" d="M99,-343.7616C99,-332.3597 99,-317.4342 99,-304.494"/>
<polygon fill="#000000" stroke="#000000" points="102.5001,-304.2121 99,-294.2121 95.5001,-304.2121 102.5001,-304.2121"/>
<text text-anchor="middle" x="103.8569" y="-314.8" font-family="Times,serif" font-size="14.00" fill="#000000"> c</text>
</g>
<!-- n9 -->
<g id="node9" class="node">
<title>n9</title>
<ellipse fill="none" stroke="#000000" cx="171" cy="-276" rx="27" ry="18"/>
<text text-anchor="middle" x="171" y="-271.8" font-family="Times,serif" font-size="14.00" fill="#000000"> </text>
</g>
<!-- n0&#45;&gt;n9 -->
<g id="edge8" class="edge">
<title>n0&#45;&gt;n9</title>
<path fill="none" stroke="#000000" d="M112.2059,-346.2263C123.0987,-333.2155 138.7212,-314.5553 151.1247,-299.7399"/>
<polygon fill="#000000" stroke="#000000" points="153.8982,-301.8794 157.634,-291.965 148.5309,-297.3858 153.8982,-301.8794"/>
<text text-anchor="middle" x="144.8569" y="-314.8" font-family="Times,serif" font-size="14.00" fill="#000000"> e</text>
</g>
<!-- n2 -->
<g id="node3" class="node">
<title>n2</title>
<ellipse fill="none" stroke="#000000" cx="27" cy="-190" rx="27" ry="18"/>
<text text-anchor="middle" x="27" y="-185.8" font-family="Times,serif" font-size="14.00" fill="#000000"> $1</text>
</g>
<!-- n1&#45;&gt;n2 -->
<g id="edge2" class="edge">
<title>n1&#45;&gt;n2</title>
<path fill="none" stroke="#000000" d="M27,-257.7616C27,-246.3597 27,-231.4342 27,-218.494"/>
<polygon fill="#000000" stroke="#000000" points="30.5001,-218.2121 27,-208.2121 23.5001,-218.2121 30.5001,-218.2121"/>
<text text-anchor="middle" x="31.8569" y="-228.8" font-family="Times,serif" font-size="14.00" fill="#000000"> c</text>
</g>
<!-- n3 -->
<g id="node4" class="node">
<title>n3</title>
<ellipse fill="none" stroke="#000000" cx="27" cy="-104" rx="27" ry="18"/>
<text text-anchor="middle" x="27" y="-99.8" font-family="Times,serif" font-size="14.00" fill="#000000"> $2</text>
</g>
<!-- n2&#45;&gt;n3 -->
<g id="edge3" class="edge">
<title>n2&#45;&gt;n3</title>
<path fill="none" stroke="#000000" d="M27,-171.7616C27,-160.3597 27,-145.4342 27,-132.494"/>
<polygon fill="#000000" stroke="#000000" points="30.5001,-132.2121 27,-122.2121 23.5001,-132.2121 30.5001,-132.2121"/>
<text text-anchor="middle" x="32.25" y="-142.8" font-family="Times,serif" font-size="14.00" fill="#000000"> b</text>
</g>
<!-- n6 -->
<g id="node6" class="node">
<title>n6</title>
<ellipse fill="none" stroke="#000000" cx="99" cy="-190" rx="27" ry="18"/>
<text text-anchor="middle" x="99" y="-185.8" font-family="Times,serif" font-size="14.00" fill="#000000"> </text>
</g>
<!-- n5&#45;&gt;n6 -->
<g id="edge5" class="edge">
<title>n5&#45;&gt;n6</title>
<path fill="none" stroke="#000000" d="M99,-257.7616C99,-246.3597 99,-231.4342 99,-218.494"/>
<polygon fill="#000000" stroke="#000000" points="102.5001,-218.2121 99,-208.2121 95.5001,-218.2121 102.5001,-218.2121"/>
<text text-anchor="middle" x="103.8569" y="-228.8" font-family="Times,serif" font-size="14.00" fill="#000000"> a</text>
</g>
<!-- n7 -->
<g id="node7" class="node">
<title>n7</title>
<ellipse fill="none" stroke="#000000" cx="99" cy="-104" rx="27" ry="18"/>
<text text-anchor="middle" x="99" y="-99.8" font-family="Times,serif" font-size="14.00" fill="#000000"> </text>
</g>
<!-- n6&#45;&gt;n7 -->
<g id="edge6" class="edge">
<title>n6&#45;&gt;n7</title>
<path fill="none" stroke="#000000" d="M99,-171.7616C99,-160.3597 99,-145.4342 99,-132.494"/>
<polygon fill="#000000" stroke="#000000" points="102.5001,-132.2121 99,-122.2121 95.5001,-132.2121 102.5001,-132.2121"/>
<text text-anchor="middle" x="104.25" y="-142.8" font-family="Times,serif" font-size="14.00" fill="#000000"> b</text>
</g>
<!-- n8 -->
<g id="node8" class="node">
<title>n8</title>
<ellipse fill="none" stroke="#000000" cx="99" cy="-18" rx="27" ry="18"/>
<text text-anchor="middle" x="99" y="-13.8" font-family="Times,serif" font-size="14.00" fill="#000000">$3</text>
</g>
<!-- n7&#45;&gt;n8 -->
<g id="edge7" class="edge">
<title>n7&#45;&gt;n8</title>
<path fill="none" stroke="#000000" d="M99,-85.7616C99,-74.3597 99,-59.4342 99,-46.494"/>
<polygon fill="#000000" stroke="#000000" points="102.5001,-46.2121 99,-36.2121 95.5001,-46.2121 102.5001,-46.2121"/>
<text text-anchor="middle" x="104.25" y="-56.8" font-family="Times,serif" font-size="14.00" fill="#000000"> b</text>
</g>
<!-- n10 -->
<g id="node10" class="node">
<title>n10</title>
<ellipse fill="none" stroke="#000000" cx="171" cy="-190" rx="27" ry="18"/>
<text text-anchor="middle" x="171" y="-185.8" font-family="Times,serif" font-size="14.00" fill="#000000"> </text>
</g>
<!-- n9&#45;&gt;n10 -->
<g id="edge9" class="edge">
<title>n9&#45;&gt;n10</title>
<path fill="none" stroke="#000000" d="M171,-257.7616C171,-246.3597 171,-231.4342 171,-218.494"/>
<polygon fill="#000000" stroke="#000000" points="174.5001,-218.2121 171,-208.2121 167.5001,-218.2121 174.5001,-218.2121"/>
<text text-anchor="middle" x="176.25" y="-228.8" font-family="Times,serif" font-size="14.00" fill="#000000"> b</text>
</g>
<!-- n11 -->
<g id="node11" class="node">
<title>n11</title>
<ellipse fill="none" stroke="#000000" cx="171" cy="-104" rx="27" ry="18"/>
<text text-anchor="middle" x="171" y="-99.8" font-family="Times,serif" font-size="14.00" fill="#000000"> </text>
</g>
<!-- n10&#45;&gt;n11 -->
<g id="edge10" class="edge">
<title>n10&#45;&gt;n11</title>
<path fill="none" stroke="#000000" d="M171,-171.7616C171,-160.3597 171,-145.4342 171,-132.494"/>
<polygon fill="#000000" stroke="#000000" points="174.5001,-132.2121 171,-122.2121 167.5001,-132.2121 174.5001,-132.2121"/>
<text text-anchor="middle" x="175.8569" y="-142.8" font-family="Times,serif" font-size="14.00" fill="#000000"> c</text>
</g>
<!-- n12 -->
<g id="node12" class="node">
<title>n12</title>
<ellipse fill="none" stroke="#000000" cx="171" cy="-18" rx="27" ry="18"/>
<text text-anchor="middle" x="171" y="-13.8" font-family="Times,serif" font-size="14.00" fill="#000000">$0</text>
</g>
<!-- n11&#45;&gt;n12 -->
<g id="edge11" class="edge">
<title>n11&#45;&gt;n12</title>
<path fill="none" stroke="#000000" d="M171,-85.7616C171,-74.3597 171,-59.4342 171,-46.494"/>
<polygon fill="#000000" stroke="#000000" points="174.5001,-46.2121 171,-36.2121 167.5001,-46.2121 174.5001,-46.2121"/>
<text text-anchor="middle" x="175.8569" y="-56.8" font-family="Times,serif" font-size="14.00" fill="#000000"> a</text>
</g>
</g>
</svg>
