<?xml version="1.0" encoding="UTF-8" standalone="no"?>
<!DOCTYPE svg PUBLIC "-//W3C//DTD SVG 1.1//EN"
 "http://www.w3.org/Graphics/SVG/1.1/DTD/svg11.dtd">
<!-- Generated by graphviz version 2.40.1 (20161225.0304)
 -->
<!-- Title: G Pages: 1 -->
<svg width="206pt" height="302pt"
 viewBox="0.00 0.00 206.00 302.00" xmlns="http://www.w3.org/2000/svg" xmlns:xlink="http://www.w3.org/1999/xlink">
<g id="graph0" class="graph" transform="scale(1 1) rotate(0) translate(4 298)">
<title>G</title>
<polygon fill="#ffffff" stroke="transparent" points="-4,4 -4,-298 202,-298 202,4 -4,4"/>
<!-- node1 -->
<g id="node1" class="node">
<title>node1</title>
<ellipse fill="none" stroke="#000000" cx="134" cy="-276" rx="27" ry="18"/>
<text text-anchor="middle" x="134" y="-271.8" font-family="Times,serif" font-size="14.00" fill="#000000"> </text>
</g>
<!-- node2 -->
<g id="node2" class="node">
<title>node2</title>
<ellipse fill="none" stroke="#000000" cx="99" cy="-190" rx="27" ry="18"/>
<text text-anchor="middle" x="99" y="-185.8" font-family="Times,serif" font-size="14.00" fill="#000000"> </text>
</g>
<!-- node1&#45;&gt;node2 -->
<g id="edge1" class="edge">
<title>node1&#45;&gt;node2</title>
<path fill="none" stroke="#000000" d="M126.9172,-258.5966C122.0309,-246.5902 115.4409,-230.3977 109.8907,-216.76"/>
<polygon fill="#000000" stroke="#000000" points="113.0837,-215.3205 106.0722,-207.3775 106.6,-217.9592 113.0837,-215.3205"/>
<text text-anchor="middle" x="123.8569" y="-228.8" font-family="Times,serif" font-size="14.00" fill="#000000"> c</text>
</g>
<!-- node3 -->
<g id="node3" class="node">
<title>node3</title>
<ellipse fill="none" stroke="#000000" cx="171" cy="-190" rx="27" ry="18"/>
<text text-anchor="middle" x="171" y="-185.8" font-family="Times,serif" font-size="14.00" fill="#000000"> </text>
</g>
<!-- node1&#45;&gt;node3 -->
<g id="edge2" class="edge">
<title>node1&#45;&gt;node3</title>
<path fill="none" stroke="#000000" d="M141.4875,-258.5966C146.6531,-246.5902 153.6196,-230.3977 159.487,-216.76"/>
<polygon fill="#000000" stroke="#000000" points="162.7866,-217.9467 163.5236,-207.3775 156.3564,-215.1802 162.7866,-217.9467"/>
<text text-anchor="middle" x="159.8569" y="-228.8" font-family="Times,serif" font-size="14.00" fill="#000000"> a</text>
</g>
<!-- node4 -->
<g id="node4" class="node">
<title>node4</title>
<ellipse fill="none" stroke="#000000" cx="27" cy="-104" rx="27" ry="18"/>
<text text-anchor="middle" x="27" y="-99.8" font-family="Times,serif" font-size="14.00" fill="#000000"> </text>
</g>
<!-- node2&#45;&gt;node4 -->
<g id="edge3" class="edge">
<title>node2&#45;&gt;node4</title>
<path fill="none" stroke="#000000" d="M85.7941,-174.2263C74.9013,-161.2155 59.2788,-142.5553 46.8753,-127.7399"/>
<polygon fill="#000000" stroke="#000000" points="49.4691,-125.3858 40.366,-119.965 44.1018,-129.8794 49.4691,-125.3858"/>
<text text-anchor="middle" x="73.25" y="-142.8" font-family="Times,serif" font-size="14.00" fill="#000000"> b</text>
</g>
<!-- node5 -->
<g id="node5" class="node">
<title>node5</title>
<ellipse fill="none" stroke="#000000" cx="99" cy="-104" rx="27" ry="18"/>
<text text-anchor="middle" x="99" y="-99.8" font-family="Times,serif" font-size="14.00" fill="#000000"> </text>
</g>
<!-- node2&#45;&gt;node5 -->
<g id="edge4" class="edge">
<title>node2&#45;&gt;node5</title>
<path fill="none" stroke="#000000" d="M99,-171.7616C99,-160.3597 99,-145.4342 99,-132.494"/>
<polygon fill="#000000" stroke="#000000" points="102.5001,-132.2121 99,-122.2121 95.5001,-132.2121 102.5001,-132.2121"/>
<text text-anchor="middle" x="103.8569" y="-142.8" font-family="Times,serif" font-size="14.00" fill="#000000"> a</text>
</g>
<!-- node6 -->
<g id="node6" class="node">
<title>node6</title>
<ellipse fill="none" stroke="#000000" cx="171" cy="-104" rx="27" ry="18"/>
<text text-anchor="middle" x="171" y="-99.8" font-family="Times,serif" font-size="14.00" fill="#000000"> </text>
</g>
<!-- node3&#45;&gt;node6 -->
<g id="edge5" class="edge">
<title>node3&#45;&gt;node6</title>
<path fill="none" stroke="#000000" d="M171,-171.7616C171,-160.3597 171,-145.4342 171,-132.494"/>
<polygon fill="#000000" stroke="#000000" points="174.5001,-132.2121 171,-122.2121 167.5001,-132.2121 174.5001,-132.2121"/>
<text text-anchor="middle" x="175.8569" y="-142.8" font-family="Times,serif" font-size="14.00" fill="#000000"> a</text>
</g>
<!-- node8 -->
<g id="node8" class="node">
<title>node8</title>
<ellipse fill="none" stroke="#000000" cx="27" cy="-18" rx="27" ry="18"/>
<text text-anchor="middle" x="27" y="-13.8" font-family="Times,serif" font-size="14.00" fill="#000000">$1</text>
</g>
<!-- node4&#45;&gt;node8 -->
<g id="edge7" class="edge">
<title>node4&#45;&gt;node8</title>
<path fill="none" stroke="#000000" d="M27,-85.7616C27,-74.3597 27,-59.4342 27,-46.494"/>
<polygon fill="#000000" stroke="#000000" points="30.5001,-46.2121 27,-36.2121 23.5001,-46.2121 30.5001,-46.2121"/>
<text text-anchor="middle" x="31.8569" y="-56.8" font-family="Times,serif" font-size="14.00" fill="#000000"> a</text>
</g>
<!-- node9 -->
<g id="node9" class="node">
<title>node9</title>
<ellipse fill="none" stroke="#000000" cx="99" cy="-18" rx="27" ry="18"/>
<text text-anchor="middle" x="99" y="-13.8" font-family="Times,serif" font-size="14.00" fill="#000000">$0</text>
</g>
<!-- node5&#45;&gt;node9 -->
<g id="edge8" class="edge">
<title>node5&#45;&gt;node9</title>
<path fill="none" stroke="#000000" d="M99,-85.7616C99,-74.3597 99,-59.4342 99,-46.494"/>
<polygon fill="#000000" stroke="#000000" points="102.5001,-46.2121 99,-36.2121 95.5001,-46.2121 102.5001,-46.2121"/>
<text text-anchor="middle" x="103.8569" y="-56.8" font-family="Times,serif" font-size="14.00" fill="#000000"> a</text>
</g>
<!-- node7 -->
<g id="node7" class="node">
<title>node7</title>
<ellipse fill="none" stroke="#000000" cx="171" cy="-18" rx="27" ry="18"/>
<text text-anchor="middle" x="171" y="-13.8" font-family="Times,serif" font-size="14.00" fill="#000000">$2</text>
</g>
<!-- node6&#45;&gt;node7 -->
<g id="edge6" class="edge">
<title>node6&#45;&gt;node7</title>
<path fill="none" stroke="#000000" d="M171,-85.7616C171,-74.3597 171,-59.4342 171,-46.494"/>
<polygon fill="#000000" stroke="#000000" points="174.5001,-46.2121 171,-36.2121 167.5001,-46.2121 174.5001,-46.2121"/>
<text text-anchor="middle" x="175.8569" y="-56.8" font-family="Times,serif" font-size="14.00" fill="#000000"> c</text>
</g>
</g>
</svg>
